<svg xmlns="http://www.w3.org/2000/svg" viewBox="0 0 18 18" width="18" height="18"><title>B: かな＋きらめき</title><path fill="currentColor" d="M9.6860 7.0522 C9.6389 7.4133 9.5447 7.7430 9.3720 8.2454 C9.0894 8.2140 8.9638 8.2140 8.7754 8.2140 C7.8177 8.2140 7.4567 8.2454 6.6089 8.4181 C6.6246 8.0884 6.6403 7.5860 6.6874 6.9109 C7.9433 6.8795 10.4867 6.6440 12.2137 6.3614 C12.5433 6.3143 12.6061 6.3143 12.8259 6.2986 L12.7474 4.4932 C11.5386 4.8700 9.3092 5.1840 6.7973 5.3253 C6.8915 4.2263 6.9543 3.8181 7.0799 3.3942 L5.1331 3.3000 C5.1645 3.4256 5.1645 3.4884 5.1645 3.5512 C5.1645 3.8495 5.1488 4.2420 5.1331 4.4461 C5.0860 5.0741 5.0860 5.0741 5.0703 5.3881 C4.7563 5.3881 4.7406 5.3881 4.7249 5.3881 C3.4218 5.3881 2.4956 5.3096 1.7891 5.1526 L1.7891 6.9109 C1.9618 6.8952 2.1031 6.8952 2.1502 6.8952 C2.1816 6.8952 2.2915 6.8952 2.4485 6.8952 C3.9713 6.9423 4.8191 6.9580 4.9918 6.9580 C4.9604 7.7116 4.9290 8.3396 4.9290 8.8420 C3.9870 9.2502 3.4061 9.6427 2.7782 10.2549 C1.7734 11.2440 1.2239 12.4843 1.2239 13.7717 C1.2239 15.4044 2.2130 16.5191 3.6730 16.5191 C4.9761 16.5191 6.3734 15.7498 7.7863 14.2584 C8.9167 13.0809 9.6546 11.9505 10.5181 10.0823 C11.6328 10.4590 12.2765 11.2597 12.2765 12.2488 C12.2765 13.3321 11.6956 14.1014 10.4396 14.6980 C9.5133 15.1375 8.7126 15.3102 7.4410 15.3259 C7.9590 16.1423 8.1003 16.4249 8.2730 17.1000 C9.6546 16.9587 10.5495 16.7232 11.4758 16.2679 C13.2498 15.3887 14.1761 14.0543 14.1761 12.3430 C14.1761 11.1027 13.6894 10.1294 12.6846 9.3758 C12.1509 8.9833 11.6956 8.7635 11.0519 8.6065 C11.0990 8.4652 11.1147 8.4495 11.2717 8.0099 C11.3973 7.6802 11.3973 7.6802 11.4601 7.5546 Z M4.9604 10.6317 C4.9604 12.1546 5.0389 13.1594 5.2430 14.1799 C4.7406 14.5881 4.3167 14.7765 3.8771 14.7765 C3.3276 14.7765 2.9823 14.3369 2.9823 13.6304 C2.9823 12.9710 3.2177 12.3273 3.6887 11.7150 C4.0027 11.3225 4.2696 11.0870 4.9604 10.6317 Z M6.7345 13.0024 C6.7188 12.9239 6.7188 12.9082 6.7188 12.8297 C6.7188 12.7198 6.7188 12.7198 6.7031 12.6256 C6.6089 11.5266 6.6089 11.3696 6.5932 9.9253 C7.2212 9.7212 7.7863 9.6427 8.4771 9.6427 C8.6341 9.6427 8.7126 9.6427 8.8853 9.6584 C8.3044 10.9614 7.6765 11.9662 6.9386 12.7983 C6.8287 12.9239 6.8287 12.9239 6.7659 13.0181 Z"/><path fill="currentColor" d="M15.0000 0.6000 Q15.5000 2.5000 17.4000 3.0000 Q15.5000 3.5000 15.0000 5.4000 Q14.5000 3.5000 12.6000 3.0000 Q14.5000 2.5000 15.0000 0.6000 Z"/></svg>
